<svg id="Layer_1" data-name="Layer 1" xmlns="http://www.w3.org/2000/svg" viewBox="0 0 2547.59 2174.88"><defs><style>.cls-1,.cls-6{fill:#fff;}.cls-1,.cls-11,.cls-13{stroke:#414042;stroke-miterlimit:10;}.cls-1,.cls-11{stroke-width:29.67px;}.cls-2{fill:#15678d;}.cls-10,.cls-3,.cls-8,.cls-9{fill:#414042;}.cls-4{fill:#00aeef;}.cls-5{fill:#faa721;}.cls-7{fill:#c2b59b;}.cls-8{fill-rule:evenodd;}.cls-9{font-size:173.25px;}.cls-10,.cls-9{font-family:Metropolis-ExtraBold, Metropolis;font-weight:800;}.cls-10{font-size:170.4px;}.cls-11,.cls-13{fill:none;}.cls-12{fill:#373737;}.cls-13{stroke-width:13.19px;}</style></defs><circle class="cls-1" cx="1087.44" cy="1087.44" r="1072.61"/><path class="cls-2" d="M384.68,1546.25l11.67-15.34c3.92-4.91,8.43-11.16,14.45-18s13.15-14.72,21.28-23.52,17.76-17.5,28.11-27.54c5.21-5,11-9.69,16.87-14.73s12-10.4,18.59-15.47a718.23,718.23,0,0,1,93.89-62.19,729.37,729.37,0,0,1,124-52.93A698.67,698.67,0,0,1,863,1286.18c13.3-.86,26.74-2.18,40.32-2.59l20.46-.1,10.3,0h7.11l1.51.08,2.38.08,19.06.67,21.37,1.41c14,1.18,27.57,2.6,41.27,4.42,54.72,7.13,108.38,19.16,160.2,32.72s102,28.7,150.64,42.31c11.94,3.44,24.07,6.71,36,9.89s23.75,6.39,35.5,9.38c23.49,5.86,46.64,10.78,69.3,15.43s45,7.65,66.72,10.47a625.84,625.84,0,0,0,63.73,4.58c5.2.24,10.34.33,15.42.22l14.26-.06,16.35-1,4-.24,3.43-.32,6.85-.55c9-.45,18.63-2,27.91-3.18,9.21-1.6,18.35-3.13,27.2-5a438.38,438.38,0,0,0,94.73-31.35,354.91,354.91,0,0,0,67.38-41.09c4.63-3.23,8.45-6.83,12.28-10.07s7.65-6.16,10.7-9.3c6.14-6.22,12-11.29,16.06-15.9,8.42-9.24,12.92-14.16,12.92-14.16s-2.05,6.29-6.39,18.29c-2.12,6-5.68,13-9.62,21.46-1.92,4.29-4.61,8.46-7.22,13.18s-5.49,9.71-9,14.58c-13.21,20.38-32.59,43.37-58.75,65.92s-59.37,43.89-98.58,61.56c-4.85,2.39-9.89,4.37-15,6.35s-10.27,4.11-15.55,6c-10.67,3.54-21.19,7.42-33.19,10.51l-8.86,2.44-4.48,1.18-4,.89-16,3.6-18.72,3.3c-6,1.11-12,2-18.11,2.74-48.78,6.5-100.64,6.72-152.8,1.83-26.12-2.2-52.28-6.07-78.43-10.5-13-2.29-26.13-4.66-39.15-7.24s-25.93-5.5-39-8.52c-51.61-11.87-102.49-26-152.25-38.93-49.78-13.14-98.55-25.26-146.12-33.79-11.82-2.27-23.85-4-35.28-5.79l-16.79-2.43-19-2.09-2.36-.26c.21,0-1.32-.1.33,0l-.54,0-1.08-.08-4.32-.3-8.61-.6-17.17-1.25-34.14-1.19a803.31,803.31,0,0,0-131.29,9.83,915.75,915.75,0,0,0-117.4,26.57l-26.41,8.44q-6.52,2-12.7,4.4l-12.36,4.48c-16.57,5.47-31.46,12.46-46.12,18.09-14.35,6.16-27.59,12.49-40.08,18.12l-33.69,16.92c-9.9,5.46-18.89,10.36-26.86,14.56s-14.45,8.51-19.9,11.59Z" transform="translate(-12.56 -17.88)"/><path class="cls-3" d="M1810.28,743.69c.21-7,.25-13.44.19-19.32,0-1.47,0-2.9-.07-4.3s-.13-2.75-.19-4.07c-.14-2.63-.3-5.11-.46-7.43-.33-4.62-.7-8.59-1-11.82-.68-6.47-1.25-10-1.25-10a122.1,122.1,0,0,1-1,19.06c-.36,2.88-.83,6-1.44,9.32-.32,1.65-.63,3.35-1.06,5.1s-.89,3.53-1.41,5.34a138.32,138.32,0,0,1-8.62,22.79c-.93,1.94-2,3.88-3.1,5.81s-2.3,3.86-3.56,5.77a111.17,111.17,0,0,1-8.37,11.16,99.92,99.92,0,0,1-10.23,10.37,102.42,102.42,0,0,1-12.46,9.16,109.18,109.18,0,0,1-31.47,13.2,154.13,154.13,0,0,1-41.55,4.09c-8.78-.23-17,0-24.64.46l-3.27,10.74c-.94,3.22-2.25,7-3.58,10.94s-2.78,8.23-4.22,12.49l-2.14,6.32c-.71,2.09-1.51,4.12-2.23,6.09l-4,10.77-3.92,10.47,2.67-10.44c.79-3.14,1.72-6.79,2.72-10.71.49-2,1-4,1.52-6l1.4-6.27c1.85-8.41,3.76-16.8,5.07-23.12s2-10.56,2-10.56c-3.5.36-6.88.8-10.14,1.3-2.76.42-5.55,2.41-8,5.54a37.51,37.51,0,0,0-3.57,5.47,46.55,46.55,0,0,0-3,6.87l-4.74,13.9c-.58,1.73-1.23,3.45-1.84,5.06s-1.17,3.12-1.65,4.41l-1.61,4.29,1.68-6.64c.49-2,1.13-4.31,1.69-6.81s1.15-5.18,1.74-7.85c1.19-5.35,2.37-10.7,3.26-14.71.44-2,.83-3.67,1-4.85l.36-1.84c-2.39.56-4.7,1.17-6.94,1.81s-4.46,1.31-6.58,2q-6.37,2.1-11.9,4.54a109.54,109.54,0,0,0-19.17,10.67c-2.68,1.92-5.29,3.85-7.63,5.81a87.47,87.47,0,0,0-6.45,5.94,81.26,81.26,0,0,0-9.59,11.74,77.28,77.28,0,0,0-5.11-21.5q-1.14-2.9-2.59-5.85c-1-2-2.13-4-3.36-6a90.81,90.81,0,0,0-9-12.07,117.35,117.35,0,0,0-28.69-23.26c-12.32-7.34-27.5-14.09-46.12-19.93q-6.21-2-11.89-4L1448.31,776c-.32,1.61-.58,3.23-.92,4.72s-.64,2.88-.91,4.07c-.53,2.39-.89,4-.89,4l.62-7.48c.18-1.86.22-3.76.31-5.17s.11-2.35.11-2.35c.36-7.14-2.2-13-6.41-14.73s-8-3.48-11.66-5.26c0,0-.63,3.27-1.57,8.18-.47,2.46-1,5.33-1.6,8.4-.28,1.54-.58,3.13-.89,4.74s-.72,3.22-1.08,4.84c-.72,3.25-1.44,6.49-2.12,9.53-.33,1.53-.66,3-1,4.39s-.58,2.72-.91,3.92c-1.23,4.81-2.06,8-2.06,8s.38-3.48.94-8.69.93-12.25,1.49-19.2c.32-3.47.42-7,.57-10.27l.41-9,.29-6.31c0-1.54,0-2.42,0-2.42a152.46,152.46,0,0,1-22.51-14.67,112.33,112.33,0,0,1-15.54-15,79.08,79.08,0,0,1-10-14.63c-.63-1.19-1.18-2.36-1.73-3.53s-1.08-2.33-1.56-3.48a66,66,0,0,1-2.37-6.71,61.18,61.18,0,0,1-1.5-6.29c-.39-2-.59-3.94-.86-5.8a61.25,61.25,0,0,1-.42-9.78,43.47,43.47,0,0,1,1.14-8.93s-1,2.12-2.4,6c-.71,1.93-1.53,4.31-2.39,7.07-.43,1.38-.88,2.86-1.32,4.43l-.67,2.43c-.24.83-.5,1.67-.76,2.54-1,3.48-2,7.3-2.9,11.43-.47,2.06-.85,4.21-1.33,6.41s-.94,4.46-1.36,6.79-.81,4.74-1.15,7.21-.61,5-1,7.57c-.67,5.14-1.14,10.53-1.33,16.16a171.23,171.23,0,0,0-.32,17.38c.15,3,.16,6,.33,9.12s.42,6.23.78,9.43.78,6.44,1.18,9.72,1,6.6,1.65,10q.5,2.55,1.08,5.14c.41,1.74.7,3.43,1.11,5.17q1.15,5.21,2.68,10.6c8,28.73,22.2,60.81,46.23,97.87,3.33,5.17,6.64,10.39,9.82,15.77,1.59,2.68,3.19,5.44,4.66,8.2s2.88,5.56,4.24,8.44a171.85,171.85,0,0,1,7.42,18.22c.55,1.6,1.09,3.24,1.58,4.89s.9,3.3,1.32,5c.84,3.39,1.58,6.88,2.21,10.51s1.13,7.44,1.43,11.11c.08.92.14,1.84.2,2.75s0,1.8.06,2.69c0,1.79,0,3.57-.07,5.35-.12,3.54-.4,7.06-.83,10.53-.21,1.74-.46,3.47-.75,5.2s-.58,3.44-1,5.1a137.66,137.66,0,0,1-6.43,19.66l-1,2.4c-.34.81-.7,1.51-1.07,2.27q-1.08,2.23-2.25,4.45a91.31,91.31,0,0,1-5.08,8.71c-7.26,11.47-16.86,22.08-27.64,32.19-5.36,5.06-11.19,10-17.13,14.82q-4.56,3.64-9.21,7.24c-3.09,2.4-6.34,4.8-9.54,7.19h0l-27.93,20c-8.8,6.34-19.3,13.88-31.22,22.8s-25.09,19-39,30.7-28.48,24.67-42.86,39.19c-3.59,3.62-7.15,7.42-10.73,11.17s-7,7.78-10.56,11.72-6.92,8.13-10.31,12.3l-5,6.37c-1.66,2.14-3.35,4.22-5,6.45-6.57,8.81-12.83,18-18.66,27.42q16.8,4.08,33.39,8.41c24.77,6.5,49.11,13.34,73.09,20.18a500.46,500.46,0,0,1,23.07-45.06c2.35-4.22,4.91-8.34,7.4-12.54s5.16-8.31,7.76-12.5c5.34-8.27,10.79-16.56,16.5-24.72,11.44-16.33,23.52-32.34,35.73-47.94l9.19-11.61,4.6-5.74,4.62-5.68,9.16-11.26c3.06-3.71,6.11-7.38,9.08-11.06l34.57-42.11c2.65-3.41,5.33-6.71,8-10l7.66-9.68,3.69-4.74,3.66-4.63c1.19-1.54,2.44-3,3.56-4.56l3.36-4.56c2.28-3,4.59-5.77,6.66-8.72,1.05-1.46,2.1-2.9,3.13-4.32s2-2.82,3.11-4.15l6.11-7.86,1.47-1.9,1.39-1.91c.91-1.27,1.81-2.52,2.74-3.7l10.31-13.35c1.67-2,3.16-4,4.6-5.84l4.14-5.33,3.71-4.8c1.18-1.48,2.33-2.79,3.37-4l2.91-3.48,2.31-3,4.27-5.42-4.05,5.81-2.21,3.15q-1.29,1.7-2.79,3.71c-1,1.34-2.1,2.75-3.23,4.32s-2.29,3.24-3.53,5l-3.93,5.55-2.09,3c-.75,1-1.51,2-2.28,3.07q-4.56,6.38-9.82,13.76c-.89,1.2-1.74,2.49-2.61,3.79s-1.82,2.57-2.75,3.88l-5.79,8c-2,2.77-3.93,5.64-5.94,8.59-.51.73-1,1.47-1.52,2.22l-1.6,2.18-3.27,4.43c-1.06,1.52-2.14,3.06-3.22,4.62s-2.27,3.06-3.42,4.62c-2.31,3.1-4.65,6.25-7,9.48l-7.37,9.76c-2.58,3.25-5.17,6.56-7.72,10-10.56,13.42-21.67,27.63-33.42,42.16s-23.63,29.72-35.71,45.15-23.93,31.36-35.21,47.54l-4.25,6.06-4.15,6.12c-2.79,4.05-5.44,8.18-8.12,12.27s-5.22,8.25-7.83,12.35q-1.87,3.11-3.74,6.21c-1.24,2.07-2.52,4.11-3.69,6.2-2.39,4.17-4.85,8.26-7.07,12.44l-3.44,6.2c-1.12,2.07-2.2,4.16-3.29,6.22s-2.2,4.1-3.2,6.19l-3.07,6.19c-.52,1-1,2-1.54,3.07l-1.43,3.09-.64,1.39c23.37,6.69,46.39,13.36,69.1,19.73,8.88-22.16,21-45.75,33.69-67.84,7.63-13.36,15.65-26.32,23.09-38.27s14.43-22.9,20.23-32.15c2.94-4.67,5.59-8.9,7.91-12.61l6-9.63,3.75-6.13,1.29-2.15h0l6.82-10.89q3.4-5.46,6.8-10.81c4.5-7.26,9-14.29,13.56-21.36,9.06-14.06,18.29-27.54,27.91-40.6,2.47-3.19,4.86-6.47,7.35-9.64,1.25-1.59,2.51-3.17,3.8-4.72s2.49-3,3.74-4.55a181.38,181.38,0,0,1,15.92-16.92c1.46-1.32,2.83-2.67,4.27-4s2.89-2.63,4.37-3.91q4.47-3.84,9.31-7.45,2.43-1.8,5-3.55l5.07-3.46q5.1-3.45,10.64-6.65c3.59-2.08,7.15-4,10.68-5.83q2.65-1.36,5.29-2.64c1.73-.86,3.42-1.71,5.13-2.53,6.81-3.28,13.55-6.14,20.26-8.76q5-2,10-3.77l9.85-3.59,19.71-7q4.42-1.57,8.77-3.31,2.16-.86,4.31-1.76t4.17-1.87q8.3-3.79,16.21-8.15t15.42-9.18q7.35-4.89,14.28-10.23t13.48-11c2.21-1.9,4.27-3.86,6.33-5.84s4.07-4,6.06-6a247.84,247.84,0,0,0,22-25.59q5-6.67,9.63-13.53c1.52-2.29,3.1-4.58,4.49-6.9s2.8-4.64,4.16-7q4.07-7,7.78-14.13,1.86-3.56,3.63-7.12c1.11-2.38,2.2-4.77,3.26-7.15q3.19-7.17,6-14.32c1.89-4.77,3.76-9.53,5.28-14.27,3.15-9.48,5.93-18.86,8.28-28,2.17-9.17,4-18.12,5.51-26.76.8-4.31,1.37-8.55,1.88-12.69s1-8.2,1.37-12.15.73-7.79,1-11.52S1810.16,747.18,1810.28,743.69Zm-367.7,204.14-1.26-2.38c-.81-1.56-2-3.79-3.63-6.59s-3.58-6.1-5.91-9.82-5-7.75-8-12.14l-2.3-3.32-2.47-3.46c-1.67-2.35-3.4-4.79-5.15-7.36-3.53-5.06-7.12-10.55-10.65-16.41-.89-1.46-1.76-3-2.64-4.46s-1.81-3.06-2.72-4.59c-1.77-3.18-3.65-6.28-5.33-9.63s-3.45-6.63-5.08-10c-.8-1.72-1.6-3.45-2.42-5.2s-1.65-3.54-2.46-5.32q-2.4-5.37-4.55-10.9-1.07-2.76-2.07-5.54c-.32-.93-.65-1.86-1-2.79l-1-2.83q-2.06-5.67-3.71-11.41c-.56-1.91-1.08-3.82-1.58-5.73l-.72-2.86-.77-2.88c-1-3.85-1.88-7.69-2.61-11.48s-1.24-7.53-1.9-11.28-1.06-7.38-1.39-10.95c-.16-1.78-.29-3.53-.39-5.26s-.28-3.46-.37-5.15c-.23-3.37-.33-6.62-.35-9.71,0-1.54,0-3.05,0-4.52,0-.73,0-1.45.07-2.16s0-1.43,0-2.13c0-5.58.41-10.44.8-14.42.21-2,.4-3.77.56-5.33s.28-2.88.43-3.95l.43-3.27s0,1.14-.14,3.29-.09,5.29-.27,9.22-.14,8.7.13,14.13c.18,2.72.22,5.55.41,8.53s.44,6.11.79,9.35c.18,1.62.39,3.26.63,4.93s.42,3.34.63,5q.69,5.1,1.72,10.43.51,2.67,1.13,5.37c.43,1.8.75,3.57,1.17,5.38q1.23,5.38,2.78,10.91c2.17,7.38,4.41,14.57,7.09,21.86.66,1.82,1.35,3.64,2.07,5.44s1.44,3.6,2.16,5.38q2.12,5.31,4.49,10.49c3.1,6.93,6.54,13.82,9.81,20.24.82,1.64,1.64,3.26,2.51,4.83l2.53,4.77c1.75,3.1,3.44,6.22,5.19,9.2s3.39,5.89,5.08,8.68,3.25,5.61,4.91,8.22c3.29,5.3,6.38,10.38,9.21,15.13,1.43,2.4,2.69,4.7,3.88,6.92s2.29,4.38,3.31,6.43c2,4.1,3.71,7.81,5,10.95s2.27,5.7,2.92,7.45ZM1799.88,770l-.69,5.36c-.21,1.75-.54,3.9-.91,6.43s-.91,5.44-1.54,8.69c-1.28,6.47-2.92,14.35-5.19,23.15-.29,1.1-.58,2.22-.87,3.35s-.67,2.27-1,3.43q-1,3.48-2.17,7.11c-1.53,4.83-3.2,9.83-5,14.95-.94,2.55-1.83,5.15-2.92,7.75s-2.16,5.23-3.31,7.87c-2.28,5.27-4.72,10.57-7.32,15.83s-5.5,10.5-8.47,15.65-6.13,10.21-9.36,15.09c-.81,1.22-1.61,2.44-2.45,3.65l-2.58,3.59q-2.6,3.57-5.24,7c-3.54,4.6-7.14,9-10.8,13.22l-2.74,3.12c-.94,1-1.9,2-2.86,3-1.9,2-3.82,4-5.74,5.85q-5.76,5.7-11.53,10.77c-1.92,1.67-3.84,3.31-5.76,4.89s-3.92,3.11-5.87,4.59c-3.92,2.95-7.8,5.7-11.62,8.19-3.84,2.66-7.59,4.81-11.31,7.06-1.86,1-3.66,2.07-5.53,3.06s-3.7,1.94-5.52,2.83a202.1,202.1,0,0,1-20.66,8.87c-3.25,1.23-6.37,2.3-9.37,3.28l-4.41,1.42-4.32,1.33-15.38,4.76c-4.58,1.48-8.57,2.76-11.87,3.9s-5.9,2-7.68,2.7l-2.72,1,2.81-1.53c1.83-1,4.52-2.41,7.92-4.06s7.55-3.62,12.27-5.71q3.55-1.58,7.52-3.26l8.25-3.47c5.65-2.37,11.78-5,18.3-7.85,3.24-1.38,6.61-3.05,10-4.74s7-3.55,10.49-5.48,7.13-4.17,10.77-6.38l5.53-3.6c1.85-1.16,3.72-2.45,5.6-3.77a222.49,222.49,0,0,0,22.46-17.68c3.74-3.24,7.49-6.7,11.21-10.34,1.89-1.82,3.64-3.71,5.44-5.64s3.57-3.89,5.34-5.91a257.18,257.18,0,0,0,20.28-25.85q4.7-6.93,9.13-14.11c1.45-2.39,3-4.79,4.29-7.22s2.66-4.87,3.94-7.33c2.57-4.92,5-9.86,7.31-14.78,1.14-2.45,2.29-4.9,3.32-7.33s2-4.86,3-7.26c1.88-4.81,3.63-9.53,5.25-14.08s3.13-9,4.32-13.16c2.47-8.4,4.42-16,5.93-22.23s2.44-11.29,3.1-14.74S1799.88,770,1799.88,770Z" transform="translate(-12.56 -17.88)"/><path class="cls-4" d="M386.86,1545c149.35,241.42,416.51,402.26,721.25,402.26,397.45,0,731-273.59,822.59-642.71-2.14,5.23-5.1,11.13-8.33,18.1-1.92,4.29-4.61,8.46-7.22,13.18s-5.49,9.71-9,14.58c-13.21,20.38-32.59,43.37-58.75,65.92s-59.37,43.89-98.58,61.56c-4.85,2.39-9.89,4.37-15,6.35s-10.27,4.11-15.55,6c-10.67,3.54-21.19,7.42-33.18,10.51l-8.87,2.44-4.48,1.18-4,.89-16,3.6-18.72,3.3c-6,1.11-12,2-18.11,2.74-48.78,6.5-100.64,6.72-152.8,1.83-26.12-2.2-52.28-6.07-78.43-10.5-13-2.29-26.13-4.66-39.15-7.24s-25.93-5.5-39-8.52c-51.61-11.87-102.49-26-152.25-38.93-49.78-13.14-98.55-25.26-146.12-33.79-11.82-2.27-23.85-4-35.28-5.79l-16.79-2.43-19-2.09-2.36-.26c.21,0-1.32-.1.33,0l-.54,0-1.08-.08-4.32-.3-8.61-.6-17.17-1.25-34.14-1.19a803.31,803.31,0,0,0-131.29,9.83,915.75,915.75,0,0,0-117.4,26.57l-26.41,8.44q-6.52,2-12.7,4.4l-12.36,4.48c-16.57,5.47-31.46,12.46-46.12,18.09-14.35,6.16-27.59,12.49-40.09,18.12l-33.68,16.92c-9.9,5.46-18.89,10.36-26.86,14.56s-14.45,8.51-19.91,11.59Zm216.28-75.84,23.07-7.37a892.48,892.48,0,0,1,114.28-25.85c13.78-2.19,27.86-4,41.85-5.46a782,782,0,0,1,85.41-4.1l33.41,1.17,16.79,1.22,13,.91,21.28,2.34,16.18,2.34,6.18,1c9.34,1.44,19,2.92,28.57,4.75,48.88,8.77,98.26,21.23,144.4,33.4q18.68,4.88,37.55,9.9c37.52,9.94,76.31,20.22,115.33,29.19,11.77,2.72,24.31,5.46,39.71,8.67,11.45,2.27,24,4.6,39.77,7.36,32.23,5.45,57,8.77,80.12,10.71,49.19,4.62,96.49,4.66,140.57.12,5.81-.59,11.65-1.28,17.09-2,4.56-.55,8.84-1.17,12.94-1.83-3.3,1.31-6.61,2.61-10,3.8-10.67,3.53-21.2,7.42-33.19,10.5l-8.86,2.44-4.48,1.18-4,.9-16,3.6-18.71,3.3c-6,1.11-12,2-18.12,2.74-48.78,6.49-100.64,6.72-152.79,1.83-26.12-2.21-52.29-6.07-78.44-10.51-13-2.28-26.12-4.65-39.15-7.24s-25.93-5.49-39-8.51c-51.6-11.87-102.48-26-152.24-38.94-49.79-13.14-98.55-25.25-146.12-33.78-11.83-2.27-23.86-4-35.28-5.79l-16.79-2.43-19-2.09-2.37-.26c.22,0-1.31-.11.33,0l-.54,0-1.08-.07-4.31-.3-8.61-.61L804.77,1454l-34.14-1.19a802.41,802.41,0,0,0-131.3,9.83C627.05,1464.6,615,1466.79,603.14,1469.16Z" transform="translate(-12.56 -17.88)"/><path class="cls-5" d="M933.59,1207.85,367.75,686.94a849.85,849.85,0,0,1,52.93-83Z" transform="translate(-12.56 -17.88)"/><path class="cls-5" d="M947.68,1195.77,424.91,598.16a850.63,850.63,0,0,1,64.66-77.78Z" transform="translate(-12.56 -17.88)"/><path class="cls-5" d="M909.75,1236.19,290.72,875a838.86,838.86,0,0,1,29.34-87.73Z" transform="translate(-12.56 -17.88)"/><path class="cls-5" d="M979.36,1176.53,575.11,440.79a851.69,851.69,0,0,1,86.29-61.4Z" transform="translate(-12.56 -17.88)"/><path class="cls-5" d="M920.9,1221.37,323,779.87a842.82,842.82,0,0,1,41-86.28Z" transform="translate(-12.56 -17.88)"/><path class="cls-5" d="M1051.37,1160.38,989.3,260.5a853.85,853.85,0,0,1,111.5-8.22Z" transform="translate(-12.56 -17.88)"/><path class="cls-5" d="M1032.81,1161.47,875.6,284.53A842.46,842.46,0,0,1,984,261.28Z" transform="translate(-12.56 -17.88)"/><path class="cls-5" d="M996.59,1169.59l-330-793.4A844.7,844.7,0,0,1,762,325.9Z" transform="translate(-12.56 -17.88)"/><path class="cls-5" d="M1014.48,1164.55l-247.14-841a838.67,838.67,0,0,1,102.9-37.45Z" transform="translate(-12.56 -17.88)"/><path class="cls-5" d="M900.28,1252.13,270.36,970.67a845.19,845.19,0,0,1,18.17-87.49Z" transform="translate(-12.56 -17.88)"/><path class="cls-5" d="M1412,1226.15l7.15-11.39,533.45-186.46q2.94,35.34,3,71.45,0,12.86-.39,25.62l-555.55,120.37C1404.15,1238.65,1408.34,1232,1412,1226.15Z" transform="translate(-12.56 -17.88)"/><path class="cls-5" d="M1505.35,785.13a222.13,222.13,0,0,0-42.71-18q-6.21-2-11.89-4L1448.31,776c-.32,1.61-.58,3.23-.92,4.72s-.64,2.88-.91,4.07c-.53,2.39-.89,4-.89,4l.62-7.48c.18-1.86.22-3.76.31-5.17s.11-2.35.11-2.35c.29-5.87-1.41-10.83-4.35-13.39l206.63-313.16A852.71,852.71,0,0,1,1729.12,523Z" transform="translate(-12.56 -17.88)"/><path class="cls-5" d="M1346.34,1338.82l539.84-6.31a354.63,354.63,0,0,1-67.14,40.91,424.37,424.37,0,0,1-69.74,25.31l-409.51-45.61C1341.87,1348.38,1344,1343.61,1346.34,1338.82Z" transform="translate(-12.56 -17.88)"/><path class="cls-5" d="M1070,1161.3l36.13-909,2,0a854.6,854.6,0,0,1,110.21,7.12Z" transform="translate(-12.56 -17.88)"/><path class="cls-5" d="M892.59,1269,261.3,1065.19a852.4,852.4,0,0,1,7.78-85.76Z" transform="translate(-12.56 -17.88)"/><path class="cls-5" d="M1364,1304.84l580.85-69.91q-4.2,26.14-9.95,51.76l-9.46,10.37c-4.07,4.61-9.92,9.68-16.06,15.9-3.05,3.14-7,6-10.7,9.3l-1.6,1.38-542.38-1.57C1357.73,1316.29,1360.84,1310.53,1364,1304.84Z" transform="translate(-12.56 -17.88)"/><path class="cls-5" d="M275,1255.69l468.15,52.15q-15,4.1-29.52,8.69c-8.85,2.83-17.48,5.84-26,8.93l-395.27,4.62Q282,1293.54,275,1255.69Z" transform="translate(-12.56 -17.88)"/><path class="cls-5" d="M821.82,1291.16q-14.4,2.19-28.45,4.93l-520.21-50.27q-6.75-38.89-9.91-78.93Z" transform="translate(-12.56 -17.88)"/><path class="cls-5" d="M879.07,1285,262.54,1157.25q-1.92-28.5-1.94-57.5,0-12.69.38-25.29l620.55,210.37Z" transform="translate(-12.56 -17.88)"/><path class="cls-5" d="M494.23,515.43a853,853,0,0,1,75.9-70.58L963,1185.3Z" transform="translate(-12.56 -17.88)"/><path class="cls-5" d="M1106.28,1169.11l232.67-885a840.14,840.14,0,0,1,106.17,37.84Z" transform="translate(-12.56 -17.88)"/><path class="cls-5" d="M1374.18,1287.18c4.55-7.71,9.14-15.2,13.61-22.41L1955,1133.18a850.2,850.2,0,0,1-8.82,93.6Z" transform="translate(-12.56 -17.88)"/><path class="cls-5" d="M1476,1125.94c3.3-4.7,6.63-9.37,10-14,2.47-3.19,4.86-6.47,7.35-9.64,1.25-1.59,2.51-3.17,3.8-4.72s2.49-3,3.74-4.55a181.38,181.38,0,0,1,15.92-16.92c1.46-1.32,2.83-2.67,4.27-4s2.89-2.63,4.37-3.91q4.47-3.84,9.31-7.45,2.43-1.8,5-3.55l5.07-3.46q5.1-3.45,10.64-6.65c3.59-2.08,7.15-4,10.68-5.83q2.65-1.36,5.29-2.64c1.73-.86,3.42-1.71,5.13-2.53,6.81-3.28,13.55-6.14,20.26-8.76q5-2,10-3.77l9.85-3.59,19.71-7q4.42-1.57,8.77-3.31,2.16-.86,4.31-1.76t4.17-1.87q8.3-3.79,16.21-8.15t15.42-9.18q7.35-4.89,14.28-10.23t13.48-11c2.21-1.9,4.27-3.86,6.33-5.84s4.07-4,6.06-6a247.84,247.84,0,0,0,22-25.59q5-6.67,9.63-13.53c1.52-2.29,3.1-4.58,4.49-6.9,1-1.67,2-3.35,3-5l142.57-88a841.91,841.91,0,0,1,28.31,98.66Z" transform="translate(-12.56 -17.88)"/><path class="cls-5" d="M1431.81,1194.27l6-9.53q3.4-5.46,6.8-10.81c4.5-7.26,9-14.29,13.56-21.36.75-1.16,1.51-2.29,2.26-3.44L1937,922.08a845.82,845.82,0,0,1,15,98.85Z" transform="translate(-12.56 -17.88)"/><path class="cls-5" d="M1773.28,889c.08-.16.17-.32.26-.48q1.86-3.56,3.63-7.12c1.11-2.38,2.2-4.77,3.26-7.15q3.19-7.17,6-14.32c1.89-4.77,3.76-9.53,5.28-14.27,3.15-9.48,5.93-18.86,8.28-28,2.17-9.17,4-18.12,5.51-26.76.8-4.31,1.37-8.55,1.88-12.69s1-8.2,1.37-12.15q.53-5.35.92-10.45L1863,714.1a842.67,842.67,0,0,1,41.92,96.27Z" transform="translate(-12.56 -17.88)"/><path class="cls-5" d="M545.84,1395.83c-18.38,12-35.14,24-50.19,35.82-6.61,5.07-12.62,10.52-18.59,15.47-4,3.44-8,6.73-11.74,10.05l-113.09,26.24q-15.92-31.31-29.27-64.05Z" transform="translate(-12.56 -17.88)"/><path class="cls-5" d="M648.09,1341.08c-20.72,8.94-40.26,18.51-58.55,28.38-5.56,3.09-11,6.22-16.29,9.36L319,1409.43q-13.35-34-23.81-69.37Z" transform="translate(-12.56 -17.88)"/><path class="cls-5" d="M1810.19,746.24c0-.85.06-1.71.09-2.55.21-7,.25-13.44.19-19.32,0-1.47,0-2.9-.07-4.3s-.13-2.75-.19-4.07c-.14-2.63-.3-5.11-.46-7.43-.33-4.62-.7-8.59-1-11.82-.68-6.47-1.25-10-1.25-10a122.1,122.1,0,0,1-1,19.06c-.36,2.88-.83,6-1.44,9.32-.32,1.65-.63,3.35-1.06,5.1s-.89,3.53-1.41,5.34a138.32,138.32,0,0,1-8.62,22.79c-.93,1.94-2,3.88-3.1,5.81s-2.3,3.86-3.56,5.77c-1.81,2.75-3.82,5.45-5.93,8.11l-40.14,30.32a113.83,113.83,0,0,1-16.46,5.46,154.13,154.13,0,0,1-41.55,4.09c-8.78-.23-17,0-24.64.46l-3.27,10.74c-.94,3.22-2.25,7-3.58,10.94s-2.78,8.23-4.22,12.49l-2.14,6.32c-.71,2.09-1.51,4.12-2.23,6.09l-4,10.77-3.92,10.47,2.67-10.44c.79-3.14,1.72-6.79,2.72-10.71.49-2,1-4,1.52-6l1.4-6.27c1.85-8.41,3.76-16.8,5.07-23.12s2-10.56,2-10.56c-3.5.36-6.88.8-10.14,1.3-2.76.42-5.55,2.41-8,5.54a37.51,37.51,0,0,0-3.57,5.47,46.55,46.55,0,0,0-3,6.87l-4.74,13.9c-.58,1.73-1.23,3.45-1.84,5.06s-1.17,3.12-1.65,4.41l-1.61,4.29,1.68-6.64c.49-2,1.13-4.31,1.69-6.81s1.15-5.18,1.74-7.85c1.19-5.35,2.37-10.7,3.26-14.71.44-2,.83-3.67,1-4.85l.36-1.84c-2.39.56-4.7,1.17-6.94,1.81s-4.46,1.31-6.58,2q-6.37,2.1-11.9,4.54a113.07,113.07,0,0,0-14.49,7.59l218.84-212.27a847,847,0,0,1,55.4,91.65Z" transform="translate(-12.56 -17.88)"/><path class="cls-5" d="M1669.2,1413l-6.85.55-3.43.32-4,.24-16.35,1-14.26.06c-5.08.11-10.22,0-15.42-.22a625.84,625.84,0,0,1-63.73-4.58c-21.75-2.82-44-5.79-66.72-10.47s-45.81-9.57-69.3-15.43c-11.75-3-23.58-6.07-35.5-9.38-3.27-.87-6.57-1.77-9.87-2.66l352.34,34.05c-6.25,1.19-12.59,2.27-19,3.38C1687.83,1411,1678.17,1412.53,1669.2,1413Z" transform="translate(-12.56 -17.88)"/><path class="cls-5" d="M448.07,1473.5c-5.74,5.5-11.12,10.73-16,15.89q-12.19,13.2-21.28,23.52c-6,6.84-10.53,13.09-14.45,18l-10,13.2q-15.37-24.91-29-50.94Z" transform="translate(-12.56 -17.88)"/><path class="cls-5" d="M1423.26,1056.49a88.12,88.12,0,0,1-4.88,8.35c-7.26,11.47-16.86,22.08-27.64,32.19-5.36,5.06-11.19,10-17.13,14.82q-4.56,3.64-9.21,7.24c-3.09,2.4-6.34,4.8-9.54,7.19h0l-27.93,20c-8.8,6.34-19.3,13.88-31.22,22.8-9,6.75-18.81,14.21-29.11,22.53l-72.52,43.31Z" transform="translate(-12.56 -17.88)"/><path class="cls-5" d="M1169.83,1206.81l238-287.16c2,3.2,4,6.42,6,9.72,1.59,2.68,3.19,5.44,4.66,8.2s2.88,5.56,4.24,8.44a173.61,173.61,0,0,1,6.74,16.31Z" transform="translate(-12.56 -17.88)"/><path class="cls-5" d="M1088.32,1164.22,1223.48,260A843.61,843.61,0,0,1,1334,282.67Z" transform="translate(-12.56 -17.88)"/><path class="cls-5" d="M1433.6,976.86c.58,2.53,1.12,5.1,1.58,7.76q1,5.61,1.43,11.11c.08.92.14,1.84.2,2.75s0,1.8.06,2.69c0,1.79,0,3.57-.07,5.35-.12,3.54-.4,7.06-.83,10.53-.21,1.74-.46,3.47-.75,5.2s-.58,3.44-1,5.1c-.3,1.22-.63,2.42-1,3.63l-250.53,189.24Z" transform="translate(-12.56 -17.88)"/><path class="cls-5" d="M1373.54,706.43c-.14-.26-.3-.52-.43-.77-.63-1.19-1.18-2.36-1.73-3.53s-1.08-2.33-1.56-3.48a66,66,0,0,1-2.37-6.71,61.18,61.18,0,0,1-1.5-6.29c-.39-2-.59-3.94-.86-5.8a61.25,61.25,0,0,1-.42-9.78,43.47,43.47,0,0,1,1.14-8.93s-1,2.12-2.4,6c-.71,1.93-1.53,4.31-2.39,7.07-.43,1.38-.88,2.86-1.32,4.43l-.67,2.43c-.24.83-.5,1.67-.76,2.54-1,3.48-2,7.3-2.9,11.43-.47,2.06-.85,4.21-1.33,6.41s-.94,4.46-1.36,6.79-.81,4.74-1.15,7.21-.61,5-1,7.57c-.67,5.14-1.14,10.53-1.33,16.16-.3,4.42-.45,9-.4,13.7l-225.2,423L1449.91,324a844.31,844.31,0,0,1,99.5,52.06Z" transform="translate(-12.56 -17.88)"/><path class="cls-5" d="M1432.3,755.5c-1.26-.58-2.53-1.16-3.74-1.75,0,0-.63,3.27-1.57,8.18-.12.62-.24,1.25-.37,1.91l-6.52,9.59c.1-2,.18-3.95.27-5.82l.41-9,.29-6.31c0-1.54,0-2.42,0-2.42a152.46,152.46,0,0,1-22.51-14.67,112.33,112.33,0,0,1-15.54-15c-1-1.14-1.87-2.28-2.74-3.41l173.63-338a849.63,849.63,0,0,1,90.72,64.84Z" transform="translate(-12.56 -17.88)"/><path class="cls-5" d="M1555.43,843.59a76.14,76.14,0,0,0-3-9.36q-1.14-2.9-2.59-5.85c-1-2-2.13-4-3.36-6a90.81,90.81,0,0,0-9-12.07,113.59,113.59,0,0,0-22.86-19.59L1733,527.21a850,850,0,0,1,68.3,84.8Z" transform="translate(-12.56 -17.88)"/><path class="cls-5" d="M1350.08,775.75q.54,4.49,1.1,9.07c.45,3.27,1,6.6,1.65,10q.5,2.55,1.08,5.14c.41,1.74.7,3.43,1.11,5.17q1.15,5.21,2.68,10.6A287.52,287.52,0,0,0,1369,848.39L1140.1,1184.52Z" transform="translate(-12.56 -17.88)"/><path class="cls-5" d="M1420.34,793.83c-.31,1.4-.58,2.72-.91,3.92-1.23,4.81-2.06,8-2.06,8s.38-3.48.94-8.69c0-.15,0-.32,0-.47l2.06-3.13C1420.39,793.6,1420.36,793.72,1420.34,793.83Z" transform="translate(-12.56 -17.88)"/><path class="cls-5" d="M1400.4,908.06l-244.83,286.8,219.53-332.7A419.59,419.59,0,0,0,1400.4,908.06Z" transform="translate(-12.56 -17.88)"/><ellipse class="cls-6" cx="840.73" cy="1314.97" rx="16.04" ry="20.84"/><path class="cls-7" d="M488.72,1677.24s59.87-74.51,303.37-58.55S1278.79,1781,1421.18,1777c137.36-3.82,187-39.06,358.39-159.13,0,0-169.89,278.06-554.32,322.27q-4.08.46-8.15,1.08C1176,1947.44,774.05,1998.61,488.72,1677.24Z" transform="translate(-12.56 -17.88)"/><path class="cls-8" d="M832.89,1243.26c-4.92-15.48-9.79-17.06-17.52-17-38.94.45-34.75,28.56-37.1,67.31-4.22,25.2-15.21,56.85-29.28,82.19-22.89,41.21-39.94,68.39-60,122.91-22.39,60.67-24.57,186.25,4.26,240.47,0,0-71.11-9.88-78.07-.25s-14.8,25.34,9.2,39,95.07,17.23,95.07,17.23l-20-35,5.43-1.53s10.76,20.28,22,38.27,49.35,25.84,49.35,25.84-4.71,26.36,20.86,38.52,78.75-2.28,81-10.64-.68-13.94-5.39-22.3a90.34,90.34,0,0,0-15-19.77c-4.26-4-20.46-18.19-20.46-18.19l7.26-2.07c9.73,5.41,18.47,16.6,25.47,25.12,0,0,26.68-3.59,101.55-16.49s93-25.08,93-25.08,27.29,7.88,55.21,10.39,69.47-3.94,75.82-12.18,4.12-28.67-1.91-33.33-42.19-5.74-47.9-5.74-26,2.16-38.7,1.08-28.87-9.67-28.87-9.67l1.27-6.43s13.32,7.17,22.84,9,27.28.36,27.28.36-7.61-7.19-9.52-16.51-8.24-12.9-16.5-13.62-45.68,8.6-45.68,8.6-13.32-16.48-36.8-40.85-104.06-38-126.27-48.74-52.42-42.1-45.44-86.54,10.22-76.45,24.22-113.24c2.94-7.7,9.22-17.09,11.91-29.25s4.71-24.33,3.59-37.51c-2-23.47-16.15-46.12-28.94-61.32-9.51-11.31-18.35-15.5-27.12-43.08Zm25.3,75.39a8.14,8.14,0,0,1,5.85,2.95c4.44,5-.32,12.91-2.54,15.06s-4.76.35-7-2.51-3.81-7.89-3.17-11.11,2.85-3.58,2.85-3.58a8.49,8.49,0,0,1,4-.81Zm0,0" transform="translate(-12.56 -17.88)"/><text class="cls-9" transform="translate(444.78 1872.4) rotate(36.21)">F</text><text class="cls-9" transform="matrix(0.87, 0.49, -0.49, 0.87, 542.26, 1943.39)">R</text><text class="cls-9" transform="translate(654.76 2005.36) rotate(22.13)">E</text><text class="cls-9" transform="translate(766.96 2050.41) rotate(15.26)">E</text><text class="cls-9" transform="matrix(0.99, 0.14, -0.14, 0.99, 883.83, 2081.81)">P</text><text class="cls-9" transform="matrix(1, 0.02, -0.02, 1, 1008.22, 2099.63)">O</text><text class="cls-9" transform="translate(1159.01 2100.17) rotate(-7.26)">R</text><text class="cls-9" transform="matrix(0.97, -0.25, 0.25, 0.97, 1286.28, 2083.16)">T</text><text class="cls-9" transform="translate(1399.93 2052.56) rotate(-19.32)">,</text><text class="cls-9" transform="translate(1453 2033.77) rotate(-22.4)"> </text><text class="cls-9" transform="matrix(0.88, -0.47, 0.47, 0.88, 1504.67, 2014.36)">N</text><text class="cls-9" transform="translate(1631.73 1945.6) rotate(-35.75)">Y</text><text class="cls-10" transform="matrix(-0.29, -0.96, 0.96, -0.29, 248.51, 1395.6)">L</text><text class="cls-10" transform="translate(218.78 1303.37) rotate(-99.53)">O</text><text class="cls-10" transform="matrix(-0.02, -1, 1, -0.02, 196.48, 1170.66)">N</text><text class="cls-10" transform="matrix(0.12, -0.99, 0.99, 0.12, 193.75, 1042.45)">G</text><text class="cls-10" transform="matrix(0.21, -0.98, 0.98, 0.21, 210.04, 919.81)"> </text><text class="cls-10" transform="translate(219.52 875.31) rotate(-74.75)">I</text><text class="cls-10" transform="translate(231.2 827.31) rotate(-69.72)">S</text><text class="cls-10" transform="translate(267.89 728.19) rotate(-63.19)">L</text><text class="cls-10" transform="matrix(0.56, -0.83, 0.83, 0.56, 310.71, 641.13)">A</text><text class="cls-10" transform="translate(379.53 537.99) rotate(-48.06)">N</text><text class="cls-10" transform="matrix(0.77, -0.64, 0.64, 0.77, 465.09, 442.49)">D</text><text class="cls-10" transform="matrix(0.82, -0.57, 0.57, 0.82, 563.36, 362.47)"> </text><text class="cls-10" transform="matrix(0.89, -0.46, 0.46, 0.89, 596.97, 333.91)">W</text><text class="cls-10" transform="translate(756.67 253.46) rotate(-17.63)">H</text><text class="cls-10" transform="matrix(0.99, -0.17, 0.17, 0.99, 874.92, 215.6)">A</text><text class="cls-10" transform="matrix(1, -0.05, 0.05, 1, 997.63, 195.42)">L</text><text class="cls-10" transform="matrix(1, 0.07, -0.07, 1, 1094.77, 190.59)">E</text><text class="cls-10" transform="translate(1202.07 199.05) rotate(8.72)"> </text><text class="cls-10" transform="translate(1246.4 204.18) rotate(13.81)">&amp;</text><text class="cls-10" transform="matrix(0.95, 0.32, -0.32, 0.95, 1356.39, 232.7)"> </text><text class="cls-10" transform="translate(1399.12 245.85) rotate(23.8)">S</text><text class="cls-10" transform="translate(1495.83 288.25) rotate(30.62)">E</text><text class="cls-10" transform="matrix(0.79, 0.62, -0.62, 0.79, 1587.96, 341.85)">A</text><text class="cls-10" transform="translate(1685.58 418.89) rotate(45.03)">L</text><text class="cls-10" transform="matrix(0.65, 0.76, -0.76, 0.65, 1754.2, 488.96)"> </text><text class="cls-10" transform="translate(1786.03 519.48) rotate(56.72)">W</text><text class="cls-10" transform="translate(1879.43 664.19) rotate(65.98)">A</text><text class="cls-10" transform="translate(1925.85 767.58) rotate(72.69)">T</text><text class="cls-10" transform="translate(1957.87 868.6) rotate(79.85)">C</text><text class="cls-10" transform="translate(1978.78 982.5) rotate(87.51)">H</text><text class="cls-10" transform="translate(1982.54 1107.65) rotate(93)">I</text><text class="cls-10" transform="translate(1982.1 1156.82) rotate(98.69)">N</text><text class="cls-10" transform="translate(1962.82 1283.57) rotate(106.76)">G</text><circle class="cls-11" cx="1087.44" cy="1087.44" r="1072.61"/><path class="cls-12" d="M1957.63,1616.9l-25.4,1a33.32,33.32,0,0,1-33.44-24.3l-6.86-24.48a5.55,5.55,0,0,0-10.69,0l-6.86,24.48a33.32,33.32,0,0,1-33.44,24.3l-25.4-1a5.55,5.55,0,0,0-3.3,10.17l21.16,14.08a33.33,33.33,0,0,1,12.77,39.32l-8.84,23.83a5.55,5.55,0,0,0,8.65,6.29l19.94-15.78a33.31,33.31,0,0,1,41.33,0l19.94,15.78a5.55,5.55,0,0,0,8.65-6.29l-8.84-23.83a33.32,33.32,0,0,1,12.78-39.32l21.16-14.08A5.55,5.55,0,0,0,1957.63,1616.9Zm-121.73,12.37a4.44,4.44,0,1,1-2.86-5.59A4.45,4.45,0,0,1,1835.9,1629.27Zm76.07,3.56a4.44,4.44,0,1,1-2.85,5.59A4.43,4.43,0,0,1,1912,1632.83Zm-14.08,4.57a4.44,4.44,0,1,1-2.85,5.6A4.43,4.43,0,0,1,1897.89,1637.4Zm-11.3-53.84a4.44,4.44,0,1,1-4.44,4.44A4.44,4.44,0,0,1,1886.59,1583.56Zm0,14.81a4.44,4.44,0,1,1-4.44,4.44A4.44,4.44,0,0,1,1886.59,1598.37Zm0,14.8a4.45,4.45,0,1,1-4.44,4.44A4.44,4.44,0,0,1,1886.59,1613.17Zm-16.9,27.08a4.44,4.44,0,1,1,2.85,5.6A4.44,4.44,0,0,1,1869.69,1640.25Zm-14.08-4.57a4.44,4.44,0,1,1,2.85,5.6A4.44,4.44,0,0,1,1855.61,1635.68Zm-11.23,1a4.44,4.44,0,1,1,5.6-2.85A4.44,4.44,0,0,1,1844.38,1636.7Zm11.86,58.37a4.44,4.44,0,1,1-1-6.21A4.44,4.44,0,0,1,1856.24,1695.07Zm8.7-12a4.44,4.44,0,1,1-1-6.2A4.44,4.44,0,0,1,1864.94,1683.09Zm8.71-12a4.44,4.44,0,1,1-1-6.2A4.44,4.44,0,0,1,1873.65,1671.11Zm8.7-12a4.44,4.44,0,1,1-1-6.2A4.45,4.45,0,0,1,1882.35,1659.13Zm4.24-22.27a4.44,4.44,0,1,1,4.44-4.44A4.44,4.44,0,0,1,1886.59,1636.86Zm10.44,23.26a4.44,4.44,0,1,1,1-6.21A4.44,4.44,0,0,1,1897,1660.12Zm8.7,12a4.44,4.44,0,1,1,1-6.2A4.42,4.42,0,0,1,1905.73,1672.09Zm8.7,12a4.44,4.44,0,1,1,1-6.2A4.44,4.44,0,0,1,1914.43,1684.07Zm8.71,12a4.44,4.44,0,1,1,1-6.2A4.45,4.45,0,0,1,1923.14,1696.05Zm5.65-59.35a4.44,4.44,0,1,1,2.86-5.6A4.43,4.43,0,0,1,1928.79,1636.7Zm14.08-4.57a4.44,4.44,0,1,1,2.86-5.6A4.44,4.44,0,0,1,1942.87,1632.13Z" transform="translate(-12.56 -17.88)"/><path class="cls-12" d="M393.2,1616.9l-25.4,1a33.32,33.32,0,0,1-33.44-24.3l-6.86-24.48a5.55,5.55,0,0,0-10.69,0L310,1593.64a33.32,33.32,0,0,1-33.44,24.3l-25.4-1a5.55,5.55,0,0,0-3.3,10.17L269,1641.15a33.33,33.33,0,0,1,12.77,39.32l-8.84,23.83a5.55,5.55,0,0,0,8.65,6.29l19.94-15.78a33.31,33.31,0,0,1,41.33,0l19.94,15.78a5.55,5.55,0,0,0,8.65-6.29l-8.84-23.83a33.32,33.32,0,0,1,12.78-39.32l21.16-14.08A5.55,5.55,0,0,0,393.2,1616.9Zm-121.73,12.37a4.44,4.44,0,1,1-2.86-5.59A4.45,4.45,0,0,1,271.47,1629.27Zm76.07,3.56a4.44,4.44,0,1,1-2.85,5.59A4.43,4.43,0,0,1,347.54,1632.83Zm-14.08,4.57a4.44,4.44,0,1,1-2.85,5.6A4.43,4.43,0,0,1,333.46,1637.4Zm-11.3-53.84a4.44,4.44,0,1,1-4.44,4.44A4.44,4.44,0,0,1,322.16,1583.56Zm0,14.81a4.44,4.44,0,1,1-4.44,4.44A4.44,4.44,0,0,1,322.16,1598.37Zm0,14.8a4.45,4.45,0,1,1-4.44,4.44A4.44,4.44,0,0,1,322.16,1613.17Zm-16.9,27.08a4.44,4.44,0,1,1,2.85,5.6A4.44,4.44,0,0,1,305.26,1640.25Zm-14.08-4.57a4.44,4.44,0,1,1,2.85,5.6A4.44,4.44,0,0,1,291.18,1635.68Zm-11.23,1a4.44,4.44,0,1,1,5.6-2.85A4.44,4.44,0,0,1,280,1636.7Zm11.86,58.37a4.44,4.44,0,1,1-1-6.21A4.44,4.44,0,0,1,291.81,1695.07Zm8.7-12a4.44,4.44,0,1,1-1-6.2A4.44,4.44,0,0,1,300.51,1683.09Zm8.71-12a4.44,4.44,0,1,1-1-6.2A4.44,4.44,0,0,1,309.22,1671.11Zm8.7-12a4.44,4.44,0,1,1-1-6.2A4.45,4.45,0,0,1,317.92,1659.13Zm4.24-22.27a4.44,4.44,0,1,1,4.44-4.44A4.44,4.44,0,0,1,322.16,1636.86Zm10.44,23.26a4.44,4.44,0,1,1,1-6.21A4.44,4.44,0,0,1,332.6,1660.12Zm8.7,12a4.44,4.44,0,1,1,1-6.2A4.42,4.42,0,0,1,341.3,1672.09Zm8.7,12a4.44,4.44,0,1,1,1-6.2A4.44,4.44,0,0,1,350,1684.07Zm8.71,12a4.44,4.44,0,1,1,1-6.2A4.45,4.45,0,0,1,358.71,1696.05Zm5.65-59.35a4.44,4.44,0,1,1,2.86-5.6A4.43,4.43,0,0,1,364.36,1636.7Zm14.08-4.57a4.44,4.44,0,1,1,2.86-5.6A4.44,4.44,0,0,1,378.44,1632.13Z" transform="translate(-12.56 -17.88)"/><circle class="cls-13" cx="1097.28" cy="1086.16" r="850.64"/><text x="-12.56" y="-17.88"/></svg>